name Walk10.mot
datacolumns 19
datarows 30
range 1.86000000 1.88900000
endheader

                time	   L_ground_force_vx	   L_ground_force_vy	   L_ground_force_vz	   L_ground_force_px	   L_ground_force_py	   L_ground_force_pz	   R_ground_force_vx	   R_ground_force_vy	   R_ground_force_vz	   R_ground_force_px	   R_ground_force_py	   R_ground_force_pz	   L_ground_torque_x	   L_ground_torque_y	   L_ground_torque_z	   R_ground_torque_x	   R_ground_torque_y	   R_ground_torque_z	
          1.86000000	        -48.12428023	        524.55627956	          5.89821228	          0.55549116	          0.00000000	          0.31056538	          0.00000000	          0.00000000	          0.00000000	          0.00000000	          0.00000000	          0.00000000	          0.00000000	         -1.43908570	          0.00000000	          0.00000000	          0.00000000	          0.00000000	
          1.86100000	        -47.83765131	        523.32014420	          6.05655709	          0.55593597	          0.00000000	          0.31043978	          0.00000000	          0.00000000	          0.00000000	          0.00000000	          0.00000000	          0.00000000	          0.00000000	         -1.44205109	          0.00000000	          0.00000000	          0.00000000	          0.00000000	
          1.86200000	        -47.55263477	        522.26118089	          6.27448769	          0.55633492	          0.00000000	          0.31034654	          0.00000000	          0.00000000	          0.00000000	          0.00000000	          0.00000000	          0.00000000	          0.00000000	         -1.42874066	          0.00000000	          0.00000000	          0.00000000	          0.00000000	
          1.86300000	        -47.25317227	        521.28716977	          6.55649953	          0.55670653	          0.00000000	          0.31027567	          0.00000000	          0.00000000	          0.00000000	          0.00000000	          0.00000000	          0.00000000	          0.00000000	         -1.39735858	          0.00000000	          0.00000000	          0.00000000	          0.00000000	
          1.86400000	        -46.92763654	        520.30234019	          6.88705752	          0.55706429	          0.00000000	          0.31021517	          0.00000000	          0.00000000	          0.00000000	          0.00000000	          0.00000000	          0.00000000	          0.00000000	         -1.35492992	          0.00000000	          0.00000000	          0.00000000	          0.00000000	
          1.86500000	        -46.56554012	        519.24641925	          7.23798912	          0.55743146	          0.00000000	          0.31017016	          0.00000000	          0.00000000	          0.00000000	          0.00000000	          0.00000000	          0.00000000	          0.00000000	         -1.31542988	          0.00000000	          0.00000000	          0.00000000	          0.00000000	
          1.86600000	        -46.15874200	        518.11677109	          7.58305561	          0.55782581	          0.00000000	          0.31015577	          0.00000000	          0.00000000	          0.00000000	          0.00000000	          0.00000000	          0.00000000	          0.00000000	         -1.28984363	          0.00000000	          0.00000000	          0.00000000	          0.00000000	
          1.86700000	        -45.71392275	        516.96138908	          7.90647442	          0.55823392	          0.00000000	          0.31017614	          0.00000000	          0.00000000	          0.00000000	          0.00000000	          0.00000000	          0.00000000	          0.00000000	         -1.27826291	          0.00000000	          0.00000000	          0.00000000	          0.00000000	
          1.86800000	        -45.25929622	        515.85166788	          8.20744034	          0.55862522	          0.00000000	          0.31021339	          0.00000000	          0.00000000	          0.00000000	          0.00000000	          0.00000000	          0.00000000	          0.00000000	         -1.27463997	          0.00000000	          0.00000000	          0.00000000	          0.00000000	
          1.86900000	        -44.82596255	        514.84457900	          8.50028815	          0.55899435	          0.00000000	          0.31023288	          0.00000000	          0.00000000	          0.00000000	          0.00000000	          0.00000000	          0.00000000	          0.00000000	         -1.27566857	          0.00000000	          0.00000000	          0.00000000	          0.00000000	
          1.87000000	        -44.42250917	        513.94329487	          8.80311159	          0.55936920	          0.00000000	          0.31020208	          0.00000000	          0.00000000	          0.00000000	          0.00000000	          0.00000000	          0.00000000	          0.00000000	         -1.28058547	          0.00000000	          0.00000000	          0.00000000	          0.00000000	
          1.87100000	        -44.03252273	        513.10197322	          9.12519732	          0.55978697	          0.00000000	          0.31010994	          0.00000000	          0.00000000	          0.00000000	          0.00000000	          0.00000000	          0.00000000	          0.00000000	         -1.28668351	          0.00000000	          0.00000000	          0.00000000	          0.00000000	
          1.87200000	        -43.63234527	        512.27807750	          9.46810169	          0.56026069	          0.00000000	          0.30996731	          0.00000000	          0.00000000	          0.00000000	          0.00000000	          0.00000000	          0.00000000	          0.00000000	         -1.28989826	          0.00000000	          0.00000000	          0.00000000	          0.00000000	
          1.87300000	        -43.20846548	        511.47470101	          9.82721144	          0.56075720	          0.00000000	          0.30979326	          0.00000000	          0.00000000	          0.00000000	          0.00000000	          0.00000000	          0.00000000	          0.00000000	         -1.28829226	          0.00000000	          0.00000000	          0.00000000	          0.00000000	
          1.87400000	        -42.75981557	        510.72786217	         10.18743431	          0.56123274	          0.00000000	          0.30960914	          0.00000000	          0.00000000	          0.00000000	          0.00000000	          0.00000000	          0.00000000	          0.00000000	         -1.28277831	          0.00000000	          0.00000000	          0.00000000	          0.00000000	
          1.87500000	        -42.28852570	        510.05764837	         10.53386665	          0.56168005	          0.00000000	          0.30944058	          0.00000000	          0.00000000	          0.00000000	          0.00000000	          0.00000000	          0.00000000	          0.00000000	         -1.27396461	          0.00000000	          0.00000000	          0.00000000	          0.00000000	
          1.87600000	        -41.79476508	        509.45611202	         10.87138897	          0.56209493	          0.00000000	          0.30931352	          0.00000000	          0.00000000	          0.00000000	          0.00000000	          0.00000000	          0.00000000	          0.00000000	         -1.25941159	          0.00000000	          0.00000000	          0.00000000	          0.00000000	
          1.87700000	        -41.27894803	        508.90595503	         11.22072543	          0.56242611	          0.00000000	          0.30924301	          0.00000000	          0.00000000	          0.00000000	          0.00000000	          0.00000000	          0.00000000	          0.00000000	         -1.23580462	          0.00000000	          0.00000000	          0.00000000	          0.00000000	
          1.87800000	        -40.74239684	        508.37485159	         11.59548160	          0.56262153	          0.00000000	          0.30922661	          0.00000000	          0.00000000	          0.00000000	          0.00000000	          0.00000000	          0.00000000	          0.00000000	         -1.20247150	          0.00000000	          0.00000000	          0.00000000	          0.00000000	
          1.87900000	        -40.18587274	        507.81597751	         11.99189482	          0.56270659	          0.00000000	          0.30924983	          0.00000000	          0.00000000	          0.00000000	          0.00000000	          0.00000000	          0.00000000	          0.00000000	         -1.16212964	          0.00000000	          0.00000000	          0.00000000	          0.00000000	
          1.88000000	        -39.61364161	        507.20131730	         12.39711436	          0.56277605	          0.00000000	          0.30929153	          0.00000000	          0.00000000	          0.00000000	          0.00000000	          0.00000000	          0.00000000	          0.00000000	         -1.12062416	          0.00000000	          0.00000000	          0.00000000	          0.00000000	
          1.88100000	        -39.03801081	        506.54339553	         12.80314730	          0.56293243	          0.00000000	          0.30932286	          0.00000000	          0.00000000	          0.00000000	          0.00000000	          0.00000000	          0.00000000	          0.00000000	         -1.08424739	          0.00000000	          0.00000000	          0.00000000	          0.00000000	
          1.88200000	        -38.47358676	        505.89451316	         13.21379556	          0.56324034	          0.00000000	          0.30931270	          0.00000000	          0.00000000	          0.00000000	          0.00000000	          0.00000000	          0.00000000	          0.00000000	         -1.05576465	          0.00000000	          0.00000000	          0.00000000	          0.00000000	
          1.88300000	        -37.93055812	        505.34226317	         13.63761186	          0.56370340	          0.00000000	          0.30923818	          0.00000000	          0.00000000	          0.00000000	          0.00000000	          0.00000000	          0.00000000	          0.00000000	         -1.03522450	          0.00000000	          0.00000000	          0.00000000	          0.00000000	
          1.88400000	        -37.41736127	        504.98029649	         14.07642363	          0.56427081	          0.00000000	          0.30909089	          0.00000000	          0.00000000	          0.00000000	          0.00000000	          0.00000000	          0.00000000	          0.00000000	         -1.02143058	          0.00000000	          0.00000000	          0.00000000	          0.00000000	
          1.88500000	        -36.94246917	        504.85976881	         14.52263960	          0.56485828	          0.00000000	          0.30888392	          0.00000000	          0.00000000	          0.00000000	          0.00000000	          0.00000000	          0.00000000	          0.00000000	         -1.01088275	          0.00000000	          0.00000000	          0.00000000	          0.00000000	
          1.88600000	        -36.50863057	        504.96239207	         14.96936777	          0.56537259	          0.00000000	          0.30865745	          0.00000000	          0.00000000	          0.00000000	          0.00000000	          0.00000000	          0.00000000	          0.00000000	         -0.99931626	          0.00000000	          0.00000000	          0.00000000	          0.00000000	
          1.88700000	        -36.11091341	        505.19541595	         15.42282233	          0.56575882	          0.00000000	          0.30846699	          0.00000000	          0.00000000	          0.00000000	          0.00000000	          0.00000000	          0.00000000	          0.00000000	         -0.98254607	          0.00000000	          0.00000000	          0.00000000	          0.00000000	
          1.88800000	        -35.74372485	        505.41830880	         15.89885887	          0.56602624	          0.00000000	          0.30835046	          0.00000000	          0.00000000	          0.00000000	          0.00000000	          0.00000000	          0.00000000	          0.00000000	         -0.95514258	          0.00000000	          0.00000000	          0.00000000	          0.00000000	
          1.88900000	        -35.40289024	        505.52211489	         16.40741814	          0.56620873	          0.00000000	          0.30830094	          0.00000000	          0.00000000	          0.00000000	          0.00000000	          0.00000000	          0.00000000	          0.00000000	         -0.91397770	          0.00000000	          0.00000000	          0.00000000	          0.00000000	
